<?xml version="1.0" standalone="no"?><!DOCTYPE svg PUBLIC "-//W3C//DTD SVG 1.1//EN" "http://www.w3.org/Graphics/SVG/1.1/DTD/svg11.dtd"><svg class="icon" width="200px" height="183.18px" viewBox="0 0 1118 1024" version="1.1" xmlns="http://www.w3.org/2000/svg"><path d="M821.248 186.368q40.96-34.816 92.672-43.008t96.768 5.632 75.776 48.64 30.72 86.016l0 385.024q0 43.008-12.8 79.36t-36.864 60.416-58.368 32.768-77.312-3.584q-28.672-8.192-52.224-22.016t-45.056-28.16-43.008-26.624-46.08-16.384l-372.736 0q-24.576 0-46.592 11.776t-43.52 27.136-45.056 30.72-51.2 23.552q-43.008 12.288-77.312 3.584t-58.88-33.28-37.376-61.44-12.8-79.872l0-382.976q6.144-50.176 37.888-84.992t73.728-49.152 88.576-6.144 82.432 43.008q15.36 15.36 44.032 38.912t65.024 46.08 79.36 38.4 88.064 15.872q44.032 0 84.48-16.384t74.24-38.912 59.904-46.08 43.52-37.888zM232.448 651.264q19.456 0 36.352-7.168t29.696-19.456 19.968-29.184 7.168-36.352q0-38.912-27.136-66.048t-66.048-27.136q-19.456 0-36.352 7.168t-29.696 19.968-19.968 29.696-7.168 36.352q0 38.912 27.136 65.536t66.048 26.624zM977.92 512l-46.08 0 0-46.08-93.184 0 0 46.08-47.104 0 0 93.184 47.104 0 0 46.08 93.184 0 0-46.08 46.08 0 0-93.184z" /></svg>